# xmcd
#
# Track frame offsets:
#	150
#	70018
#	191252
#	230974
#	291671
#	337084
#
# Disc length: 4736 seconds
#
# Revision: 1
# Processed by: cddbd v1.5.2PL0 Copyright (c) Steve Scherf et al.
# Submitted via: audiograbber 1.83.01
#
DISCID=60127e06
DTITLE=Grateful Dead - 95-03-27 The Omni, Atlanta GA
DYEAR=1900
DGENRE=
TTITLE0=Playing In The Band
TTITLE1=Uncle John's Band > Drums
TTITLE2=Space
TTITLE3=Days Between
TTITLE4=Sugar Magnolia
TTITLE5=I Fought The Law
EXTD=
EXTT0=
EXTT1=
EXTT2=
EXTT3=
EXTT4=
EXTT5=
PLAYORDER=
